<?xml version="1.0" encoding="utf-8"?>
<!-- Generator: Adobe Illustrator 24.1.1, SVG Export Plug-In . SVG Version: 6.00 Build 0)  -->
<svg version="1.1" id="Layer_1" xmlns="http://www.w3.org/2000/svg" xmlns:xlink="http://www.w3.org/1999/xlink" x="0px" y="0px"
	 viewBox="0 0 1296 725" style="enable-background:new 0 0 1296 725;" xml:space="preserve">
<style type="text/css">
	.st0{fill:#3F3D56;}
	.st1{opacity:0.1;enable-background:new    ;}
	.st2{fill:#E4A50D;}
	.st3{fill:#FFB9B9;}
	.st4{fill:#D0CDE1;}
	.st5{fill:#2F2E41;}
	.st6{fill:#F2F2F2;}
	.st7{fill:#FBBEBE;}
	.st8{fill:#575A89;}
	.st9{opacity:0.4;enable-background:new    ;}
	.st10{opacity:0.1;fill:#E4A50D;enable-background:new    ;}
	.st11{fill:url(#Path_236_1_);}
	.st12{fill:#4C495A;}
	.st13{fill:#5F5D7E;}
	.st14{fill:#FDC2CC;}
	.st15{fill:#DFE6F5;}
	.st16{fill:#53526B;}
	.st17{fill:#FFFFFF;}
	.st18{fill:#865A61;}
	.st19{opacity:0.1;}
	.st20{fill:#535461;}
	.st21{fill:#65617D;}
	.st22{fill:#9D9CB5;}
	.st23{fill:none;stroke:#535461;stroke-width:2;stroke-miterlimit:10;}
	.st24{fill:none;stroke:#1A1818;stroke-width:4;}
	.st25{fill:#0D0B0B;}
	.st26{fill:#870C17;}
	.st27{fill:#1A1818;}
</style>
<g>
	<g id="Group_10018" transform="translate(-21 -371)">
		<ellipse id="Ellipse_61" class="st10" cx="360.84" cy="1047.4" rx="324" ry="11.55"/>
		<path id="Path_235" class="st10" d="M275.66,391.96c20.64-18.39,53.04-22.14,82.53-20.68c92.63,4.6,176.25,49.32,248.58,99.91
			c26.18,18.31,51.97,38.05,68.96,63.27c34.6,51.34,24.34,122.45-23.78,164.74c-16.37,14.39-36.21,25.42-56.59,35.2
			c-36.22,17.39-75.3,31.34-116.42,35.32c-29.32,2.83-58.99,0.53-88.14-3.42c-81.43-11.05-161.36-35.47-228.35-77.25
			c-29.38-18.32-57.08-41.11-69.19-70.75c-12.11-29.64-4.36-67.21,25.64-84.76c12.41-7.26,27.25-10.53,41.77-13.61
			c21.38-4.53,43.1-9,62.4-18.2c19.93-9.51,43.53-27.91,39.58-48.96C258.44,430.18,255.04,410.34,275.66,391.96z"/>
		
			<linearGradient id="Path_236_1_" gradientUnits="userSpaceOnUse" x1="-2599.0652" y1="1451.3698" x2="-2599.0652" y2="1452.3698" gradientTransform="matrix(199.6051 0 0 -635.5513 519176.4063 923477.75)">
			<stop  offset="0" style="stop-color:#808080;stop-opacity:0.251"/>
			<stop  offset="0.535" style="stop-color:#808080;stop-opacity:0.122"/>
			<stop  offset="1" style="stop-color:#808080;stop-opacity:0.102"/>
		</linearGradient>
		<path id="Path_236" class="st11" d="M488.77,631.89c-1.41-2.73-8.87-19.7-8.87-19.7l-12.5-32.38c0,0-8.87-13.65-8.87-16.19
			s-16.13-12.68-16.13-12.68s-13.1-3.9-14.11-4.29c-1.01-0.39-16.53-5.52-16.53-5.52s-6.11-8.04-6.98-5.94v0.01
			c-0.03-0.05-0.06-0.1-0.1-0.15c-1.25-2.33-2.04-4.88-2.33-7.51c-0.03-0.23-0.06-0.48-0.09-0.72c8.17-5.54,13.08-14.76,13.13-24.63
			c0-1.28-0.09-2.56-0.26-3.83c0.11-0.07,0.23-0.13,0.35-0.18c0.25-0.11,0.19-0.2,0-0.29c0.06-0.03,0.13-0.07,0.19-0.1
			c0.33-0.15,0.11-0.26-0.21-0.39l0.02-0.01c0.46-0.2-0.12-0.33-0.58-0.54c-0.03-0.13-0.05-0.27-0.08-0.4
			c0.1-0.26,0.16-0.53,0.18-0.8c0.04,0.02,0.08,0.04,0.12,0.06c0.11-0.5,0.11-1.02-0.01-1.53c-0.03,0.1-0.06,0.2-0.1,0.3
			c0.06-0.93-0.39-1.81-1.17-2.31l-0.07-0.06l0.85-8.75c12.6-0.6,14.82-22.04,11.94-23.23s0-3.77,0-8.93
			c0-5.16-9.51-10.92-9.51-10.92s-3.98,1.99-10.17-7.94c-6.19-9.93-28.97-11.52-30.52-8.93c-1.55,2.58-11.72,5.96-24.99,9.73
			s-10.84,19.46-8.62,22.83c1.82,2.79,2.89,6.01,3.1,9.33c0,1.99,4.2,10.32,4.2,10.32c-1.33,2.89,2.05,18.72,3.05,23.22
			c-0.02,0.14-0.03,0.28-0.05,0.42c-0.01,0.01-0.02,0.02-0.03,0.04c-0.05,0.07-0.09,0.15-0.13,0.23c-0.21,0.47-0.28,0.99-0.2,1.49
			c-0.07,0.55,0,1.12,0.22,1.63c0.15,8.57,4,16.67,10.55,22.2c0.02,0.27,0.03,0.54,0.05,0.82c0.19,3.67,0.29,8.02,0.1,12.18
			c-0.01,0.21-0.03,0.42-0.04,0.63c-1.48,0.3-2.74,1.29-3.37,2.66c-1.25,2.4-8.51,6.11-8.51,6.11s-12.7,0.58-13.91,2.93
			s-19.55,10.14-19.55,10.14s-9.67,5.66-8.26,12.09c0.74,3.36-1.33,8.59-3.48,12.82c-4.49-1.7-9.16-2.87-13.92-3.47l10.27,9.83
			c-0.21,0.34-0.34,0.53-0.34,0.53l-5.85,20.68c0,0-2.02,7.22-4.03,8.97s1.81,17.75,1.81,17.75s-2.22,11.31-4.03,14.24
			c-1.81,2.93,2.82,10.14,2.82,10.14l9.27,21.07l24.59,6.24c0,0,1.64,0.35,4.29,0.91c-0.08,0.5-0.17,1.01-0.26,1.51
			c-1.18,6.71-2.74,12.88-4.64,14.55c-4.64,4.1-4.43,22.43-4.43,22.43l0.2,25.95c0,0,1.61,31.99,0.81,33.16
			c-0.51,0.74,0.51,1.94,3.21,3.03c-0.08,0.48-0.15,0.97-0.22,1.47c-0.76,5.31-1.1,11.36,0.64,14.04c0.76,1.45,1.17,3.05,1.21,4.68
			c0,2.54,3.83,7.8,3.83,7.8s-3.02,21.65,2.02,29.07s9.27,20.87,6.85,23.99c0,0-4.23,9.17-2.22,13.27s0,6.44-2.62,7.41
			s-2.39,8.97-2.39,8.97l4.81,38.04c0,0,2.62,7.8,0.4,10.53s-2.22,16.39,1.21,21.07s-4.84,13.27-4.84,13.27s-5.04,7.22,3.02,9.56
			c0,0,1.61,0.39-1.41,3.51s-3.63,7.02-1.61,8.39c0.42,0.25,0.85,0.47,1.31,0.65c-0.08,0.46-0.16,0.94-0.25,1.45
			c-0.77,4.07-2.23,9.38-4.89,11.95c-5.14,5.27-9.58,11.18-13.2,17.59c-2.77,5.24-3.98,10.15-0.91,12.45
			c7.26,5.46,16.53,7.22,21.97,5.07s13.1-8.78,13.1-8.78l1.81-7.61c0,0-1.21-4.68,4.84-6.44s11.69-8,11.69-8v-10.11
			c1.46-0.84,2.88-1.76,4.23-2.76c0,0,2.82-9.95,0-13.27s-3.83-4.49-0.2-6.63s4.12-6.83,1.46-10.92s-6.9-10.14-3.27-18.73
			s4.96-34.92,4.96-34.92s-1.69-17.95,0-22.04s-1.93-12.29-1.93-12.29s1.21-10.14,3.43-14.83s4.03-29.46,4.03-29.46
			s4.03-10.53,4.03-17.36s-6.25-23.21,3.02-27.51c0,0,4.03,3.51,2.42,17.56c0,0,4.64,16.39,4.64,21.46s3.43,23.41,3.43,23.41
			s0.4,5.85,1.81,8s0,8,0,8s5.24,4.88,3.83,8s0.24,10.16,0.24,10.16l-1.25,43.68c0,0-3.63,18.73,4.84,30.04
			c0,0-3.02,16.58-4.84,17.75s6.65,11.31,6.65,11.31s-2.35,6.57,2.42,6.89v10.86c1.65,2.92,3.92,5.45,6.65,7.41
			c4.43,3.12,2.62,13.85,2.62,13.85s5.64,13.66,20.56,10.73s16.93-4.29,16.13-9.17c-0.29-1.78-0.93-4.95-1.86-8.56
			c-1.6-6.27-4.06-13.83-7.01-17.56c-4.64-5.88-8.47-18.16-8.47-18.16s-1.81-4.1,0-5.46s1.01-3.9,1.01-3.9s1.77-5.07,0.18-8.19
			s3.05-9.56,3.05-9.56l-1.41-30.04l1.41-43.7c0,0-6.25-7.22-3.63-11.51s-3.02-10.34-3.02-10.34s-0.6-0.2,1.01-5.07
			c0.97-2.87,0.82-6-0.4-8.78c0,0-3.43-12.09,2.62-21.26c0,0,2.62-12.09,3.43-18.34c0.56-4.34,4.04-20.54,6.11-30.03l0.34-1.54
			c2.98,0.16,5.24,0.35,5.24,0.35s-4.64-32.19,0-38.82c4.64-6.63-3.63-57.35-3.63-57.35s-1.97-8.86-3.19-17.91
			c-0.07-0.52-0.13-1.03-0.2-1.54c3.74-0.3,7.5-0.38,11.25-0.25c9.67,0.58,19.15-3.12,19.35-6.83c0.2-3.71,5.44-18.34,6.25-21.65
			S490.19,634.63,488.77,631.89z"/>
		<path id="Path_237" class="st12" d="M371.16,1008.21v18.06c0,0-5.44,6.22-11.27,7.96c-5.83,1.75-4.66,6.41-4.66,6.41l-1.75,7.57
			c0,0-7.38,6.6-12.62,8.74s-14.18,0.39-21.17-5.05c-2.95-2.29-1.79-7.18,0.88-12.4c3.47-6.36,7.75-12.24,12.72-17.51
			c2.56-2.56,3.96-7.84,4.71-11.89c0.55-3.04,0.73-5.39,0.73-5.39L371.16,1008.21z"/>
		<path id="Path_238" class="st1" d="M371.16,1021.69v4.58c0,0-5.44,6.22-11.27,7.96c-5.83,1.75-4.66,6.41-4.66,6.41l-1.75,7.57
			c0,0-7.38,6.6-12.62,8.74s-14.18,0.39-21.17-5.05c-2.95-2.29-1.79-7.18,0.88-12.4c-0.12,5.48,1.5,11.65,9.42,11.43
			c8.54-0.27,16.78-3.27,23.5-8.55c0,0-0.19-12.82,8.74-15.73C365.49,1025.58,368.53,1023.9,371.16,1021.69L371.16,1021.69z"/>
		<path id="Path_239" class="st12" d="M442.25,1054.44c-14.37,2.91-19.81-10.68-19.81-10.68s1.75-10.68-2.53-13.79
			c-2.64-1.97-4.83-4.49-6.41-7.38v-17.87l17.48-12.43l9.46,8.38l0.64,0.56c0,0,3.69,12.24,8.16,18.09
			c2.84,3.71,5.21,11.24,6.75,17.48c0.89,3.59,1.52,6.75,1.79,8.52C458.56,1050.16,456.62,1051.52,442.25,1054.44z"/>
		<path id="Path_240" class="st1" d="M442.25,1054.44c-14.37,2.91-19.81-10.68-19.81-10.68s1.75-10.68-2.53-13.79
			c-2.64-1.97-4.83-4.49-6.41-7.38v-6.92c2.77,2.93,8,8.6,9.13,11c1.55,3.3,1.75,15.34,8.93,17.48s21.17,4.08,22.34-1.36
			c0.48-2.07,1.18-4.08,2.09-6c0.89,3.59,1.52,6.75,1.79,8.52C458.56,1050.16,456.62,1051.52,442.25,1054.44z"/>
		<path id="Path_241" class="st1" d="M338.73,1004.71l32.43,3.5v9.55c-3.66,2.17-8.9,4.47-11.85,2.1
			c-4.35-3.48-17.29-7.9-21.32-9.76C338.55,1007.06,338.73,1004.71,338.73,1004.71z"/>
		<path id="Path_242" class="st1" d="M441.08,1002.77c-4.47-1.55-12.43,5.24-22.92,9.52c-1.46,0.69-3.05,1.04-4.66,1.04v-8.62
			l17.48-12.43l9.46,8.38C440.59,1001.38,440.81,1002.09,441.08,1002.77L441.08,1002.77z"/>
		<path id="Path_243" class="st13" d="M452.54,788.93c0,0-0.61,2.86-1.49,7.01c-2,9.44-5.35,25.58-5.89,29.9
			c-0.78,6.22-3.3,18.26-3.3,18.26c-5.83,9.13-2.53,21.17-2.53,21.17c1.18,2.77,1.32,5.88,0.39,8.74c-1.55,4.85-0.97,5.05-0.97,5.05
			s5.44,6.02,2.91,10.29s3.5,11.46,3.5,11.46l-1.36,43.51l1.36,29.91c0,0-4.47,6.41-2.94,9.52s-0.17,8.16-0.17,8.16
			s0.78,2.53-0.97,3.88s0,5.44,0,5.44c-4.47-1.55-12.43,5.24-22.92,9.52s-6.99-5.83-6.99-5.83s-8.16-10.1-6.41-11.27
			s4.66-17.67,4.66-17.67c-8.16-11.27-4.66-29.91-4.66-29.91l1.2-43.49c0,0-1.59-7.01-0.23-10.11s-3.69-7.96-3.69-7.96
			s1.36-5.83,0-7.96s-1.75-7.96-1.75-7.96s-3.3-18.26-3.3-23.31s-4.47-21.36-4.47-21.36c1.55-13.98-2.33-17.48-2.33-17.48
			c-8.93,4.27-2.91,20.59-2.91,27.39s-3.88,17.29-3.88,17.29s-1.75,24.67-3.88,29.33s-3.3,14.76-3.3,14.76s3.5,8.16,1.86,12.24
			s0,21.95,0,21.95s-1.28,26.22-4.78,34.77s0.58,14.57,3.15,18.65s2.09,8.74-1.41,10.88s-2.52,3.3,0.19,6.6s0,13.21,0,13.21
			s-11.07,8.74-15.93,4.86s-20.39-8.93-22.34-10.29s-1.36-5.24,1.55-8.35s1.36-3.5,1.36-3.5c-7.77-2.33-2.91-9.52-2.91-9.52
			s7.96-8.55,4.66-13.21s-3.3-18.26-1.17-20.98s-0.39-10.49-0.39-10.49l-4.64-37.87c0,0-0.22-7.96,2.31-8.93s4.47-3.3,2.52-7.38
			s2.14-13.21,2.14-13.21c2.33-3.11-1.75-16.51-6.6-23.89s-1.95-28.93-1.95-28.93s-3.69-5.24-3.69-7.77
			c-0.04-1.62-0.43-3.21-1.17-4.66c-1.68-2.66-1.35-8.69-0.62-13.98c0.71-5.11,1.79-9.53,1.79-9.53L452.54,788.93z"/>
		<path id="Path_244" class="st14" d="M414.47,568.88l-38.26,8.93c0,0-18.84-15.93-14.18-24.47c1.6-2.94,2.31-7.95,2.55-13.25
			c0.19-4.14,0.08-8.47-0.09-12.13c-0.27-5.29-0.71-9.2-0.71-9.2s39.23-22.14,37.87,0c-0.28,3.69-0.19,7.39,0.26,11.06
			c0.28,2.61,1.04,5.15,2.24,7.48c2.1,3.74,4.68,3.79,4.68,3.79L414.47,568.88z"/>
		<path id="Path_245" class="st1" d="M401.91,529.84c-11.39,8.17-26.9,7.39-37.42-1.86c-0.27-5.29-0.71-9.2-0.71-9.2
			s39.23-22.14,37.87,0C401.38,522.46,401.46,526.16,401.91,529.84L401.91,529.84z"/>
		<circle id="Ellipse_63" class="st14" cx="384.37" cy="504.59" r="30.1"/>
		<path id="Path_246" class="st1" d="M414.47,568.88l-38.26,8.93c0,0-18.84-15.93-14.18-24.47c1.6-2.94,2.31-7.95,2.55-13.25
			c0.84,4.61,3.32,8.76,6.97,11.69c8.74,5.83,7.38,13.01,7.38,13.01l15.73-0.58c-0.97-6.41,4.86-9.9,6.8-10.68
			c1.94-0.78,0.97-4.27,0.97-4.27l1.72-11.95c2.1,3.74,4.68,3.79,4.68,3.79L414.47,568.88z"/>
		<path id="Path_247" class="st1" d="M452.54,788.93c0,0-0.61,2.86-1.49,7.01c-4.23-0.22-9.81-0.39-12.3,0.18
			c-4.27,0.97-21.36,1.36-21.36,1.36l-42.34,1.5v-1.31c-4.87,0.04-9.73,0.36-14.57,0.97c-7.19,0.97-18.45-0.39-25.64-1.55
			c-2.21-0.32-4.38-0.9-6.45-1.74c0.71-5.11,1.79-9.53,1.79-9.53L452.54,788.93z"/>
		<path id="Path_248" class="st2" d="M449.24,665.6c-0.61,3.63-0.16,9.64,0.61,15.58c1.17,9,3.08,17.83,3.08,17.83
			s7.96,50.5,3.5,57.1c-4.46,6.6,0,38.65,0,38.65s-13.4-1.16-17.67-0.19s-21.36,1.36-21.36,1.36l-42.34,1.5v-1.3
			c-4.87,0.04-9.73,0.36-14.57,0.97c-7.19,0.97-18.45-0.39-25.64-1.55s-10.1-3.5-9.32-4.66s-0.78-33.02-0.78-33.02l-0.19-25.83
			c0,0-0.19-18.26,4.27-22.34c1.83-1.66,3.33-7.81,4.47-14.49c1.64-9.67,2.52-20.47,2.52-20.47l-29.53-79.05l-0.58-1.55
			c0,0,8.55-13.21,7.19-19.62s7.96-12.04,7.96-12.04s17.67-7.77,18.84-10.1s13.4-2.91,13.4-2.91s6.99-3.69,8.2-6.08
			c0.59-1.36,1.81-2.34,3.26-2.65c0.82,4.66,3.31,8.87,7,11.84c8.74,5.83,7.38,13.01,7.38,13.01l15.73-0.58
			c-0.97-6.41,4.86-9.91,6.8-10.68c1.94-0.78,0.97-4.27,0.97-4.27l1.82-12.58c0.84-2.09,6.73,5.91,6.73,5.91s14.96,5.11,15.93,5.5
			s13.6,4.27,13.6,4.27s15.54,10.1,15.54,12.62s8.55,16.12,8.55,16.12s-0.1,0.54-0.29,1.54
			C462.32,594.14,450.66,657.25,449.24,665.6z"/>
		<path id="Path_249" class="st14" d="M387.09,634.14c0,0-33.6-8.93-36.9-11.07s-22.73,10.3,0.97,27.2c0,0,28.97,6.02,36.73,0
			S387.09,634.14,387.09,634.14z"/>
		<path id="Path_250" class="st1" d="M459.73,580.92l4.08,0.19l12.04,32.24c0,0,7.19,16.9,8.55,19.62s0.78,13.98,0,17.29
			s-5.83,17.87-6.02,21.56s-9.32,7.38-18.65,6.8s-31.08,2.33-31.08,2.33s-23.23-2.43-37.48,4.86c0,0-9.13-18.84-8.16-53.99
			c0,0,16.12-0.97,20.2,0.58s23.89,6.02,26.41,3.69s13.98,4.27,13.98,4.27c1.18-2.59,1.18-5.57,0-8.16
			c-1.94-4.66-5.24-19.23-0.97-23.89S459.73,580.92,459.73,580.92z"/>
		<path id="Path_251" class="st1" d="M449.85,681.18c-9.64,0.65-20.42,2.1-20.42,2.1s-23.23-2.43-37.48,4.86
			c0,0-9.13-18.84-8.16-53.99c0,0,16.12-0.97,20.2,0.58s23.89,6.02,26.41,3.69s13.98,4.27,13.98,4.27c1.18-2.59,1.18-5.57,0-8.16
			c-1.94-4.66-5.24-19.23-0.97-23.89s17.09-27.39,17.09-27.39l3.79,0.18c-1.97,10.71-13.63,73.82-15.06,82.17
			C448.63,669.23,449.08,675.24,449.85,681.18z"/>
		<path id="Path_252" class="st2" d="M460.51,581.7l4.08,0.19l12.04,32.24c0,0,7.19,16.9,8.55,19.62s0.78,13.98,0,17.29
			s-5.83,17.87-6.02,21.56s-9.32,7.38-18.65,6.8s-31.08,2.33-31.08,2.33s-23.23-2.43-37.48,4.86c0,0-9.13-18.84-8.16-53.99
			c0,0,16.12-0.97,20.2,0.58s23.89,6.02,26.41,3.69s13.98,4.27,13.98,4.27c1.18-2.59,1.18-5.57,0-8.16
			c-1.94-4.66-5.24-19.23-0.97-23.89S460.51,581.7,460.51,581.7z"/>
		
			<rect id="Rectangle_739" x="409.75" y="629.88" transform="matrix(0.5264 -0.8502 0.8502 0.5264 -331.769 669.8214)" class="st15" width="51.3" height="5.7"/>
		
			<ellipse id="Ellipse_64" transform="matrix(0.5264 -0.8502 0.8502 0.5264 -294.8668 671.5272)" class="st15" cx="455.38" cy="600.46" rx="16.42" ry="11.51"/>
		
			<ellipse id="Ellipse_65" transform="matrix(0.5264 -0.8502 0.8502 0.5264 -294.8675 671.5272)" class="st1" cx="455.38" cy="600.46" rx="11.78" ry="8.27"/>
		
			<rect id="Rectangle_740" x="400.53" y="660.41" transform="matrix(0.5264 -0.8502 0.8502 0.5264 -366.6806 668.2079)" class="st16" width="31.92" height="5.7"/>
		<path id="Path_253" class="st14" d="M377.18,677.26l11.85-3.3c0,0,58.46,1.55,38.84-22.53c0,0-10.29-9.91-31.85-1.94
			s-27.58,8.93-27.58,8.93L377.18,677.26z"/>
		<circle id="Ellipse_66" class="st1" cx="368.44" cy="573.35" r="2.33"/>
		<circle id="Ellipse_67" class="st1" cx="408.45" cy="571.99" r="2.33"/>
		<circle id="Ellipse_68" class="st17" cx="368.44" cy="572.57" r="2.33"/>
		<circle id="Ellipse_69" class="st1" cx="371.74" cy="605.59" r="2.33"/>
		<circle id="Ellipse_70" class="st1" cx="409.62" cy="603.26" r="2.33"/>
		<circle id="Ellipse_71" class="st17" cx="371.74" cy="604.81" r="2.33"/>
		<circle id="Ellipse_72" class="st1" cx="408.65" cy="715.73" r="2.33"/>
		<circle id="Ellipse_73" class="st1" cx="377.97" cy="715.73" r="2.33"/>
		<circle id="Ellipse_74" class="st17" cx="408.65" cy="714.95" r="2.33"/>
		<circle id="Ellipse_75" class="st1" cx="380.3" cy="754.75" r="2.33"/>
		<circle id="Ellipse_76" class="st1" cx="409.62" cy="752.42" r="2.33"/>
		<circle id="Ellipse_77" class="st17" cx="380.3" cy="753.97" r="2.33"/>
		<circle id="Ellipse_78" class="st17" cx="377.97" cy="714.95" r="2.33"/>
		<circle id="Ellipse_79" class="st17" cx="409.62" cy="751.64" r="2.33"/>
		<circle id="Ellipse_80" class="st17" cx="408.45" cy="571.21" r="2.33"/>
		<circle id="Ellipse_81" class="st17" cx="409.62" cy="602.48" r="2.33"/>
		<path id="Path_254" class="st1" d="M413.11,684.25c0,0,0.39,53.22,1.55,62.73C414.67,746.98,415.09,686.76,413.11,684.25z"/>
		<path id="Path_255" class="st1" d="M423.02,708.92c-0.8,0,15.93,62.34,16.7,66.81S427.68,708.92,423.02,708.92z"/>
		<path id="Path_256" class="st1" d="M436.23,698.82c0,0.58,9.32,33.79,13.98,35.54C454.87,736.11,436.23,698.82,436.23,698.82z"/>
		<path id="Path_257" class="st1" d="M472.93,634.14c0,0-19.81,0.88-20.39,3.74C451.96,640.74,472.93,634.14,472.93,634.14z"/>
		<path id="Path_258" class="st1" d="M437.97,887.4c0,0-14.18,6.02-12.04,6.41S437.97,887.4,437.97,887.4z"/>
		<path id="Path_259" class="st1" d="M408.65,878.47c-0.55-1.24,9.52,5.05,9.52,5.83S409.42,880.22,408.65,878.47z"/>
		<path id="Path_260" class="st1" d="M421.85,898.86c0,0,11.07-0.56,11.85,3.7S421.85,898.86,421.85,898.86z"/>
		<path id="Path_261" class="st1" d="M342.22,898.84c0,0,12.04-2.35,13.01,0S342.22,898.84,342.22,898.84z"/>
		<path id="Path_262" class="st1" d="M346.69,972.09c0,0,0.79,9.91-2.13,12.24S346.69,972.09,346.69,972.09z"/>
		<path id="Path_263" class="st1" d="M345.22,993.06c3.8,0.39,23.81-3.11,23.61,0S345.22,993.06,345.22,993.06z"/>
		<path id="Path_264" class="st1" d="M437,981.02c0,0-6.82-1.05-5.16,3.55L437,981.02z"/>
		<path id="Path_265" class="st1" d="M310.17,593.35h-3.69l-5.63,20.59c0,0-1.94,7.19-3.88,8.93s1.75,17.67,1.75,17.67
			s-2.14,11.27-3.88,14.18c-1.75,2.91,2.72,10.1,2.72,10.1l8.93,20.98l23.7,6.22c0,0,41.76,9.13,43.7,10.49
			c1.94,1.36,3.69-0.58,5.05-13.21c1.36-12.62,5.05-37.1,7.96-38.26c0,0-23.31,2.53-25.25,2.14c-1.94-0.39-11.27,0.19-11.27,0.19
			s-12.24-0.78-14.18,0.39c-1.94,1.16,2.52-5.64,2.52-5.64c0.82-3.12,0.82-6.39,0-9.51C337.37,633.36,336.59,573.93,310.17,593.35z"
			/>
		<path id="Path_266" class="st1" d="M386.12,653.36c-2.91,1.17-6.6,25.64-7.96,38.26s-3.11,14.57-5.05,13.21
			c-1.58-1.1-29.41-7.33-39.82-9.63c1.64-9.67,2.52-20.47,2.52-20.47l-29.52-79.04h3.11c26.41-19.42,27.19,40.01,28.55,45.25
			c0.82,3.12,0.82,6.39,0,9.51c0,0-4.47,6.81-2.52,5.64c1.94-1.17,14.18-0.39,14.18-0.39s9.32-0.58,11.27-0.19
			C362.81,655.89,386.12,653.36,386.12,653.36z"/>
		<path id="Path_267" class="st2" d="M309.4,594.13h-3.69l-5.63,20.59c0,0-1.94,7.19-3.88,8.93s1.75,17.67,1.75,17.67
			s-2.14,11.27-3.88,14.18c-1.75,2.91,2.72,10.1,2.72,10.1l8.93,20.98l23.7,6.22c0,0,41.76,9.13,43.7,10.49
			c1.94,1.36,3.69-0.58,5.05-13.21c1.36-12.62,5.05-37.1,7.96-38.26c0,0-23.31,2.53-25.25,2.14c-1.94-0.39-11.27,0.19-11.27,0.19
			s-12.24-0.78-14.18,0.39c-1.94,1.16,2.52-5.64,2.52-5.64c0.82-3.12,0.82-6.39,0-9.51C336.59,634.14,335.82,574.71,309.4,594.13z"
			/>
		<path id="Path_268" class="st1" d="M322.03,664.44c0,0-10.68,20.2-12.62,17.87C307.46,679.97,322.03,664.44,322.03,664.44z"/>
		<path id="Path_269" class="st1" d="M310.95,652.94c0,0-9.9,8.2-5.24,10.34C310.37,665.41,310.95,652.94,310.95,652.94z"/>
		<path id="Path_270" class="st1" d="M320.27,642.88c0.78,0.19,14.37,2.89,14.57,4.07S320.27,642.88,320.27,642.88z"/>
		<path id="Path_271" class="st1" d="M414.56,500.6c-0.87,0.31-1.42,1.16-1.33,2.08c-0.79,0.7-1.9-0.12-2.55-1.02
			s-1.39-1.98-2.38-1.86c-0.47,0.15-0.92,0.34-1.36,0.57c-1.55,0.5-2.87-1.33-3.74-2.93c-1.51-2.8-3.03-5.61-4.54-8.41
			c-3.04,1.76-6.63-0.08-9.64-1.91s-6.6-3.68-9.65-1.92c-4.47,2.58-4.63,11.18-9.26,13.3c-1.49,0.68-3.22,0.54-4.61,1.48
			c-1.37,0.93-2.11,2.73-2.72,4.44c-0.23,0.98-0.76,1.86-1.52,2.51c-0.48,0.25-1.02,0.38-1.57,0.38c-1.37,0.23-2.78,0.04-4.04-0.57
			c-1.36-0.85-1.94-2.53-1.4-4.04c0.04-0.08,0.08-0.15,0.12-0.23c0.5-0.6,0.94-1.24,1.34-1.92c0.47-1.23-0.2-2.67-0.05-4.01
			c0.24-2.28,2.66-3.49,3.07-5.73c0.17-0.88-0.01-1.82,0.15-2.7c0.02-0.12,0.05-0.23,0.09-0.34l-1.42,0.98
			c1.59-1.86,2.39-4.44,3.56-6.69c2.62-4.98,7.16-8.68,12.57-10.23c5.07-1.48,10.42-1.07,15.53,0.18c4.86,1.21,9.52,3.13,13.82,5.7
			c1.54,0.82,2.9,1.93,4.02,3.27c0.94,1.38,1.74,2.86,2.39,4.4c1.51,3.12,5.63,6.01,2.35,6.45c-2.73,0.36-0.24,2.28,1.19,3.57
			c0.32,0.25,0.6,0.56,0.82,0.9c0.48,1,0.42,2.18-0.17,3.12C413.08,500.12,415.32,500.26,414.56,500.6z"/>
		<path id="Path_272" class="st18" d="M414.56,499.82c-0.87,0.31-1.42,1.16-1.33,2.08c-0.79,0.7-1.9-0.12-2.55-1.02
			s-1.39-1.98-2.38-1.86c-0.47,0.15-0.92,0.34-1.36,0.57c-1.55,0.5-2.87-1.33-3.74-2.93c-1.51-2.8-3.03-5.61-4.54-8.41
			c-3.04,1.76-6.63-0.09-9.64-1.91s-6.6-3.68-9.65-1.92c-4.47,2.58-4.63,11.18-9.26,13.3c-1.49,0.68-3.22,0.54-4.61,1.48
			c-1.37,0.93-2.11,2.73-2.72,4.44c-0.23,0.98-0.76,1.86-1.52,2.51c-0.48,0.25-1.02,0.38-1.57,0.38c-1.37,0.23-2.78,0.04-4.04-0.57
			c-1.36-0.85-1.94-2.53-1.4-4.04c0.04-0.08,0.08-0.15,0.12-0.23c0.5-0.6,0.94-1.24,1.34-1.92c0.47-1.24-0.2-2.67-0.05-4.01
			c0.24-2.28,2.66-3.49,3.07-5.73c0.17-0.88-0.01-1.82,0.15-2.7c0.02-0.12,0.05-0.23,0.09-0.34l-1.42,0.98
			c1.59-1.86,2.39-4.44,3.56-6.69c2.62-4.98,7.16-8.68,12.57-10.23c5.07-1.48,10.42-1.07,15.53,0.18c4.86,1.21,9.52,3.13,13.82,5.7
			c1.54,0.82,2.9,1.93,4.02,3.27c0.94,1.38,1.74,2.86,2.39,4.4c1.51,3.12,5.63,6.01,2.35,6.45c-2.73,0.37-0.24,2.28,1.19,3.57
			c0.32,0.25,0.6,0.56,0.82,0.9c0.48,1,0.42,2.18-0.17,3.11C413.08,499.34,415.32,499.48,414.56,499.82z"/>
		<path id="Path_273" class="st1" d="M412.98,494.63l-0.31,3.27c0,0-32.6-41.32-57.96,5.34l-0.33-1.52c0.5-0.6,0.94-1.24,1.34-1.92
			c0.47-1.24-0.2-2.67-0.05-4.01c0.24-2.28,2.66-3.49,3.07-5.73c0.17-0.88-0.01-1.82,0.15-2.7c0.02-0.12,0.05-0.23,0.09-0.34
			l-1.42,0.98c1.59-1.86,2.39-4.44,3.56-6.69c2.62-4.98,7.16-8.68,12.57-10.23c5.07-1.48,10.42-1.07,15.53,0.18
			c4.86,1.21,9.52,3.13,13.82,5.7c1.54,0.82,2.9,1.93,4.02,3.27c0.94,1.38,1.74,2.86,2.39,4.4c1.51,3.12,5.63,6.01,2.35,6.45
			C409.07,491.43,411.55,493.34,412.98,494.63z"/>
		<g id="Group_10017" transform="translate(21 371)" class="st19">
			<path id="Path_274" d="M392.79,128.4c-0.33,0.37-0.46,0.86-0.37,1.35c-0.79,0.7-1.9-0.12-2.55-1.02
				c-0.65-0.89-1.39-1.98-2.38-1.86c-0.47,0.15-0.92,0.34-1.36,0.57c-1.55,0.5-2.87-1.33-3.74-2.93c-1.51-2.8-3.03-5.61-4.54-8.41
				c-3.04,1.76-6.63-0.09-9.64-1.91s-6.6-3.68-9.65-1.92c-4.47,2.58-4.63,11.18-9.26,13.3c-1.49,0.68-3.22,0.54-4.61,1.48
				c-1.37,0.93-2.11,2.73-2.72,4.44c-0.23,0.98-0.76,1.86-1.52,2.51c-0.48,0.25-1.02,0.38-1.57,0.38c-1.37,0.23-2.78,0.04-4.04-0.57
				c-0.75-0.5-1.29-1.26-1.51-2.14c-0.32,1.43,0.29,2.9,1.51,3.69c1.26,0.6,2.67,0.8,4.04,0.57c0.55,0,1.08-0.13,1.57-0.38
				c0.76-0.65,1.3-1.53,1.52-2.51c0.61-1.72,1.35-3.51,2.72-4.44c1.38-0.94,3.11-0.79,4.61-1.48c4.63-2.12,4.79-10.72,9.26-13.3
				c3.05-1.76,6.64,0.09,9.65,1.92s6.6,3.68,9.64,1.91c1.51,2.8,3.03,5.6,4.54,8.41c0.87,1.6,2.18,3.43,3.74,2.93
				c0.44-0.23,0.89-0.42,1.36-0.57c0.99-0.12,1.72,0.97,2.38,1.86s1.76,1.72,2.55,1.02c-0.09-0.92,0.46-1.78,1.33-2.08
				C394.35,128.95,393.06,128.8,392.79,128.4z"/>
			<path id="Path_275" d="M390.25,120.64c0.24-0.09,0.48-0.16,0.73-0.18c1.45-0.19,1.45-0.86,0.88-1.82
				c-0.27,0.15-0.57,0.24-0.88,0.26C389.42,119.11,389.57,119.82,390.25,120.64z"/>
			<path id="Path_276" d="M393.22,127.15c0.11-0.5,0.11-1.02-0.01-1.52c-0.07,0.31-0.2,0.6-0.39,0.85
				C392.58,126.79,392.88,126.99,393.22,127.15z"/>
			<path id="Path_277" d="M334.9,124.91c-0.02,0.09-0.04,0.18-0.05,0.27c-0.03,0.7,0.02,1.4,0.15,2.09
				C335.09,126.48,335.06,125.68,334.9,124.91z"/>
			<path id="Path_278" d="M338.05,115.43c-0.36,0.69-0.8,1.34-1.3,1.95l1.25-0.86C338,116.15,338.01,115.79,338.05,115.43
				L338.05,115.43z"/>
		</g>
		<path id="Path_279" class="st2" d="M354.71,502.46c0,0-4.69-20.96-3.2-24.32c0,0-4.05-8.3-4.05-10.28c-0.2-3.3-1.22-6.5-2.98-9.29
			c-2.13-3.36-4.48-18.98,8.31-22.73c12.79-3.76,22.59-7.12,24.08-9.69c1.49-2.57,23.44-0.99,29.4,8.9s9.8,7.91,9.8,7.91
			s9.16,5.73,9.16,10.87c0,5.14-2.77,7.71,0,8.9c2.77,1.19,0.64,22.54-11.51,23.13l-1.06,11.26
			C412.67,497.12,380.07,455.8,354.71,502.46z"/>
		<path id="Path_280" class="st1" d="M356.11,439.92c0,0-2.82,16.51,2.33,22.04L356.11,439.92z"/>
		<path id="Path_281" class="st1" d="M369.32,436.13c0,0-7.19,17.67-5.44,21.07L369.32,436.13z"/>
		<path id="Path_282" class="st1" d="M375.53,430.5c0,0-4.86,23.02-2.52,24.86L375.53,430.5z"/>
		<path id="Path_283" class="st1" d="M383.88,436.71c0,0-6.02,14.76-3.59,16.8L383.88,436.71z"/>
		<path id="Path_284" class="st1" d="M395.25,438.46c0,0-7.09,12.04-5.63,14.18L395.25,438.46z"/>
		<path id="Path_285" class="st1" d="M409.81,450.21c0,0-7.58,2.04-6.02,4.47L409.81,450.21z"/>
		<path id="Path_286" class="st1" d="M417,462.74c0,0-6.8,3.3-5.53,5.05L417,462.74z"/>
		<path id="Path_287" class="st1" d="M351.52,478.14c0,0,43.42-17.64,62.22,7.71C413.74,485.85,390.92,466.45,351.52,478.14z"/>
		<path id="Path_288" class="st16" d="M335.83,623.05l6.05-6.12l17.11,16.91l-6.05,6.12l-15.73-15.55L335.83,623.05z"/>
		<path id="Path_289" class="st15" d="M296.14,583.82c0,0,26.48,2.25,51.12,29.99l-10.27,10.39L296.14,583.82z"/>
		<path id="Path_290" class="st14" d="M375.56,633.42c0,0-25.45-9.28-27.95-11.5c-2.5-2.22-17.21,10.69,0.74,28.24
			c0,0,21.95,6.25,27.82,0S375.56,633.42,375.56,633.42z"/>
	</g>
	<g id="Group_10019" transform="translate(-230.162 -387)">
		<ellipse id="Ellipse_62" class="st10" cx="1299.25" cy="1056.06" rx="86.65" ry="7.67"/>
		<rect id="Rectangle_741" x="1300.8" y="589.34" class="st20" width="15.1" height="339.83"/>
		<path id="Path_291" class="st21" d="M1338.16,926.82l-0.33,5.24l-0.46,7.4l-0.19,3.09l-0.46,7.41l-0.2,3.09l-0.46,7.4l-5.22,84.19
			c-0.47,7.52-6.7,13.38-14.23,13.38h-27.11c-7.53,0-13.76-5.86-14.22-13.38l-5.23-84.19l-0.46-7.4l-0.19-3.09l-0.47-7.41
			l-0.19-3.09l-0.46-7.4l-0.33-5.24c-0.25-4.07,2.85-7.58,6.92-7.83c0.15-0.01,0.3-0.01,0.46-0.01h55.44c4.08,0,7.38,3.3,7.38,7.38
			C1338.18,926.51,1338.17,926.67,1338.16,926.82L1338.16,926.82z"/>
		<path id="Path_292" class="st22" d="M1337.84,932.07l-0.46,7.4h-68.61l-0.46-7.4H1337.84z"/>
		<path id="Path_293" class="st22" d="M1337.19,942.55l-0.46,7.41h-67.31l-0.47-7.41H1337.19z"/>
		<path id="Path_294" class="st22" d="M1336.54,953.05l-0.46,7.4h-66.01l-0.46-7.4H1336.54z"/>
		<path id="Path_295" class="st2" d="M1183.84,716.72c87.91,63.59,124.51,163.06,124.51,163.06s-105.93-3.63-193.84-67.22
			S990,649.49,990,649.49S1095.93,653.12,1183.84,716.72z"/>
		<path id="Path_296" class="st23" d="M990,649.49c0,0,109.95,61.03,145.22,111.56c35.27,50.53,173.13,118.73,173.13,118.73"/>
		<path id="Path_297" class="st2" d="M1240.58,588.59c47.85,34.61,67.77,88.75,67.77,88.75s-57.66-1.98-105.5-36.59
			S1135.08,552,1135.08,552S1192.73,553.98,1240.58,588.59z"/>
		<path id="Path_298" class="st23" d="M1135.07,552c0,0,59.84,33.22,79.04,60.72s94.23,64.62,94.23,64.62"/>
		<path id="Path_299" class="st2" d="M1377.89,674.59c-54.96,60.41-66.58,139.33-66.58,139.33s77.48-19.01,132.44-79.42
			s66.58-139.33,66.58-139.33S1432.85,614.18,1377.89,674.59z"/>
		<path id="Path_300" class="st23" d="M1510.31,595.17c0,0-71.59,61.92-89.78,104.58s-109.24,114.17-109.24,114.17"/>
	</g>
</g>
</svg>
