<?xml version="1.0" encoding="utf-8"?>
<!-- Generator: Adobe Illustrator 24.1.1, SVG Export Plug-In . SVG Version: 6.00 Build 0)  -->
<svg version="1.1" id="Layer_1" xmlns="http://www.w3.org/2000/svg" xmlns:xlink="http://www.w3.org/1999/xlink" x="0px" y="0px"
	 viewBox="0 0 1296 1080" style="enable-background:new 0 0 1296 1080;" xml:space="preserve">
<style type="text/css">
	.st0{fill:#3F3D56;}
	.st1{opacity:0.1;enable-background:new    ;}
	.st2{fill:#E4A50D;}
	.st3{fill:#FFB9B9;}
	.st4{fill:#D0CDE1;}
	.st5{fill:#2F2E41;}
	.st6{fill:#F2F2F2;}
	.st7{fill:#FBBEBE;}
	.st8{fill:#575A89;}
	.st9{opacity:0.4;enable-background:new    ;}
	.st10{opacity:0.1;fill:#E4A50D;enable-background:new    ;}
	.st11{fill:url(#Path_236_1_);}
	.st12{fill:#4C495A;}
	.st13{fill:#5F5D7E;}
	.st14{fill:#FDC2CC;}
	.st15{fill:#DFE6F5;}
	.st16{fill:#53526B;}
	.st17{fill:#FFFFFF;}
	.st18{fill:#865A61;}
	.st19{opacity:0.1;}
	.st20{fill:#535461;}
	.st21{fill:#65617D;}
	.st22{fill:#9D9CB5;}
	.st23{fill:none;stroke:#535461;stroke-width:2;stroke-miterlimit:10;}
	.st24{fill:none;stroke:#1A1818;stroke-width:4;}
	.st25{fill:#0D0B0B;}
	.st26{fill:#870C17;}
	.st27{fill:#1A1818;}
</style>
<g id="undraw_Tree_swing_646s" transform="translate(0 0.001)">
	<path id="Path_326" class="st0" d="M951.15,933.08h-3.18V584.59c0-2.88-1.29-5.6-3.52-7.41l2.01-2.47c2.98,2.42,4.7,6.05,4.7,9.88
		L951.15,933.08z"/>
	<path id="Path_327" class="st0" d="M626.73,38.76c0.82,1.88,1.44,3.85,1.83,5.86C627.67,41.55,626.97,39.46,626.73,38.76z"/>
	<path id="Path_328" class="st0" d="M654.98,136.12c0,0,0,2.2-2.37,10.13L654.98,136.12z"/>
	<path id="Path_329" class="st0" d="M945.73,467.83c-62.63,32.64-144.56,60.83-169.09,69c18.71-4.87,73.17-11.43,157.55,41.21
		c106.02,66.13,219.38,22.04,219.38,22.04s-25.19,48.3-78.73,51.43c-53.54,3.15-193.14-85.02-240.37-59.83
		c-47.25,25.19-69.28-6.31-88.19,56.69c-18.89,62.98-53.52,235.11-13.63,331.69l39.87,96.56H545.8c0,0,81.88-218.33,36.74-352.68
		c-25.27-75.24-60.75-129.73-73.98-157.42c-6.64-13.87-7.69-21,0.91-20.65c4.89,0.21,12.9,2.83,24.79,8.03
		c0,0-54.59-53.54-72.42-53.54c-17.85,0-101.83-8.39-129.11-36.74c0,0-38.84-27.29-108.12,39.89s-52.49,67.18-114.41,61.93
		C49.24,560.26,1.49,530.69,0,529.77c1.77,0.72,72.96,29.17,116.48,14.68c44.09-14.7,81.88-70.34,120.72-89.22
		c38.84-18.9,61.93-44.09,114.41-16.8l-34.58-81.54l-9.47-22.34l-0.02-0.03c0,0-11.56-153.25-33.6-163.74
		c-22.04-10.51-8.39-37.79-49.33-43.04c0,0,50.38-6.31,59.83,28.34c9.46,34.63,74.54,221.48,74.54,221.48s39.87,79.76,83.97,60.88
		c44.09-18.9-16.8-124.91-16.8-124.91l-75.57-34.65c0,0,56.69-2.1,91.32,30.45c34.63,32.53,36.74,137.5,36.74,137.5
		s87.12,12.59,108.12,59.84c0,0,13.65-41.99-12.59-67.18c-6.56-6.31-13.46-17.26-20.1-30.14c-25.17-49.44-34.27-105.52-26.02-160.38
		c3.9-26.85,6.31-53.11,2.02-59.3c-9.44-13.65-49.33-97.61-52.49-119.67c-3.14-22.04,3.15-68.22,3.15-68.22s1.05,56.67,13.65,74.52
		c12.6,17.85,48.28,106.02,48.28,106.02s0,111.26,29.4,165.85c29.4,54.59,86.07,115.46,82.93,155.35v23.09
		c0,0,62.98-59.83,58.77-79.78c-4.2-19.94-9.44-67.18-49.33-95.51c-39.89-28.34-66.13-73.49-37.79-138.57
		c15.94-36.61,22.91-56.27,25.97-66.48l-16.53,70.69c0,0-10.49,72.42,18.9,97.61c0.08,0.06,0.14,0.13,0.22,0.19
		c29.35,25.22,67.99,71.2,67.99,71.2l-0.11-2.02l-8.28-149.13l1.82,3.98l13.09,28.69l12.39,27.15c0,0,58.77-75.57,128.06-100.77
		C939.43,168.67,982.47,80.5,982.47,80.5l58.79-46.2l-48.3,57.74c0,0-14.7,68.22-97.61,116.51
		c-82.93,48.28-136.45,119.65-139.6,163.74c-3.15,44.09-6.31,82.93-6.31,82.93s155.35-5.25,189.99-73.49
		c34.65-68.22,62.99-71.37,62.99-71.37l-19.95,58.77l-22.04,50.38c0,0,90.27,2.1,137.5,55.64c47.25,53.54,164.8,69.28,164.8,69.28
		l-66.12,17.83c0,0-62.99-20.99-122.82-59.83C1013.97,463.63,1020.25,428.99,945.73,467.83z"/>
	<path id="Path_330" class="st1" d="M979.2,324.61c-6.64,29.4-14.46,57.79-25.45,79.43c-34.63,68.23-189.99,73.49-189.99,73.49
		s0.73-9.01,1.85-23.23c39.44-3.25,147.26-17.12,175.4-72.55c2.58-5.06,4.97-10.51,7.23-16.24L979.2,324.61z"/>
	<path id="Path_331" class="st1" d="M737.53,408.25c0,0-38.84-46.2-68.22-71.39c-6.45-5.51-10.97-13.31-14.11-22.1
		c-0.25-0.7-0.49-1.42-0.73-2.13c0.69,0.67,1.37,1.32,2.1,1.94c25.72,22.05,58.69,60.21,66.51,69.36c1.1,1.31,1.7,2.02,1.7,2.02
		l-8.17-147.17l13.09,28.69L737.53,408.25z"/>
	<path id="Path_332" class="st1" d="M760.01,275.71c-0.23,25.84-3.58,41.22-3.58,41.22s58.76-75.54,128.02-100.75
		c4.09-2.59,8.25-5.14,12.49-7.61c82.92-48.29,97.62-116.51,97.62-116.51l48.28-57.73l-58.78,46.19c0,0-43.04,88.17-112.32,113.37
		C824.52,211.03,782.19,251.61,760.01,275.71z"/>
	<path id="Path_333" class="st1" d="M669.3,525.81v23.09c0,0,62.98-59.83,58.78-79.78c-3.21-15.25-7.06-46.46-26.52-72.98
		c8.77,20.04,11.44,39.59,13.78,50.68c3.01,14.3-28.52,49.11-46.61,67.66C669.38,518.23,669.56,522.03,669.3,525.81z"/>
	<path id="Path_334" class="st1" d="M584.82,367.33c0.5,1.06,1.01,2.11,1.56,3.12c16.1,29.89,40.36,61.67,58.52,90.86
		C630.22,432.41,604.69,399.35,584.82,367.33z"/>
	<path id="Path_335" class="st1" d="M935.78,578.04c-34.53-21.54-64.04-33.16-88.15-39.05c-25.29,9.52-46.11,16.62-56.58,20.1
		c18.78-4.86,73.2-11.32,157.47,41.24c66.12,41.24,135.09,39.62,177.64,32.55c11.77-8.88,21.63-20.03,29-32.8
		C1155.16,600.08,1041.8,644.17,935.78,578.04z"/>
	<path id="Path_336" class="st1" d="M635.99,322.64c-8.46-20.74-9.86-45.42-0.13-74.34c-0.12-10.48,0.48-20.96,1.81-31.35
		l16.53-70.7c-3.05,10.2-10.02,29.87-25.97,66.5C608.02,259.14,615.56,295.38,635.99,322.64z"/>
	<path id="Path_337" class="st1" d="M1099.53,475.17c-32.76-37.13-86.21-49.51-115.9-53.62l-8.87,20.28c0,0,90.27,2.1,137.51,55.63
		c26.19,29.69,74.01,47.75,111.42,57.95l40.64-10.97C1264.32,544.45,1146.76,528.7,1099.53,475.17z"/>
	<path id="Path_338" class="st1" d="M457.27,460.73c44.09-18.89-16.79-124.91-16.79-124.91l-1.67-0.76
		c15.18,32.02,37.19,89.89,5.72,103.38c-29.45,12.62-57.02-18.78-72.08-41.02c0.55,1.57,0.85,2.43,0.85,2.43
		S413.18,479.62,457.27,460.73z"/>
	<path id="Path_339" class="st1" d="M601.07,528.95c0,0,13.28-40.95-11.67-66.23c6.12,21.78-1.07,43.94-1.07,43.94
		c-16.24-36.54-72.04-52.35-96.49-57.63c0.95,12.17,1.11,20.1,1.11,20.1S580.08,481.72,601.07,528.95z"/>
	<path id="Path_340" class="st1" d="M654.2,146.25c2.36-7.91,2.37-10.12,2.37-10.12L654.2,146.25z"/>
	<path id="Path_341" class="st1" d="M130.18,566.94c0.21-0.07,0.43-0.13,0.64-0.2c44.09-14.7,81.87-70.33,120.71-89.22
		c38.83-18.89,61.93-44.09,114.41-16.79c0,0-9.18-37.58-26.98-62.27c5.89,12.89,10.66,26.27,14.24,39.98
		c-52.48-27.29-75.58-2.1-114.41,16.79c-38.84,18.89-76.63,74.53-120.71,89.22S1.57,529.75,1.57,529.75s48.28,30.44,110.22,35.69
		C118.87,566.04,124.91,566.57,130.18,566.94z"/>
	<path id="Path_342" class="st1" d="M321.87,356.81c0,0-1.72,0.03-4.84,0.08l-9.47-22.34c1.03-0.02,1.57-0.03,1.57-0.03
		s-7.29-96.66-21.34-141.71c0.18,0.08,0.32,0.18,0.48,0.25C310.31,203.56,321.87,356.81,321.87,356.81z"/>
	<path id="Path_343" class="st1" d="M567.8,1076.64c19.24-58.96,65.49-222,29.07-330.4c-15.73-46.81-30.3-76.67-42.63-95.71
		c9.21,18.03,19.29,41.87,29.89,73.42c45.13,134.36-36.74,352.69-36.74,352.69H567.8z"/>
	<path id="Path_344" class="st1" d="M548.59,576.19c-12.67-5.57-26.22-8.84-40.03-9.67c-6.64-13.87-7.69-21,0.91-20.65
		c2.39,0.43,4.79,0.94,7.18,1.53C533.53,561.42,548.59,576.19,548.59,576.19z"/>
	<path id="Path_345" class="st1" d="M264.43,160.58c1.2,2.02,2.65,3.87,4.32,5.52C267.52,164.1,266.07,162.25,264.43,160.58z"/>
	<path id="Path_346" class="st1" d="M456.22,331.62c1.62,1.53,3.14,3.17,4.55,4.91c-4.6-11.05-10.28-20.61-17.29-27.2
		c-34.64-32.54-91.32-30.44-91.32-30.44l71.09,32.58C435.42,316.01,446.62,322.85,456.22,331.62L456.22,331.62z"/>
	<path id="Path_347" class="st1" d="M531.65,189.66c4.28,6.19,1.88,32.45-2.03,59.3c-8.24,54.86,0.86,110.93,26.03,160.37
		c3.34,6.61,7.08,13.02,11.18,19.2c-23.99-48.71-32.53-103.58-24.47-157.28c3.91-26.86,6.32-53.11,2.03-59.3
		c-9.44-13.65-49.33-97.62-52.48-119.66c-0.94-8.55-1.16-17.17-0.66-25.76c-8.15-23.13-8.93-64.76-8.93-64.76s-6.3,46.19-3.15,68.23
		C482.32,92.04,522.21,176.02,531.65,189.66z"/>
	<path id="Path_348" class="st1" d="M630.13,44.55c-0.42-2.07-1.06-4.1-1.91-6.04C628.23,38.51,629.03,40.77,630.13,44.55z"/>
	<path id="Path_349" class="st1" d="M259.38,150.26c9.25,1.13,19.89,3.97,28.01,10.55c-0.53-1.79-0.99-3.4-1.36-4.75
		c-9.44-34.64-59.83-28.34-59.83-28.34C248.97,130.65,254.85,140.39,259.38,150.26z"/>
	<path id="Path_350" class="st0" d="M1249.24,1022.7c-15.65,24-11.37,54.54-11.37,54.54s29.67-8.39,45.33-32.4
		c15.65-24.01,11.37-54.54,11.37-54.54S1264.9,998.7,1249.24,1022.7z"/>
	<path id="Path_351" class="st2" d="M1261.01,1026.95c-1.24,28.63-22.49,50.97-22.49,50.97s-19.25-24.09-18.01-52.72
		c1.24-28.63,22.49-50.97,22.49-50.97S1262.24,998.31,1261.01,1026.95z"/>
	<path id="Path_352" class="st3" d="M985.28,845.75c0,0,18.01-18.9,25.38-15.1c7.37,3.8-21.2,20.7-21.2,20.7L985.28,845.75z"/>
	<path id="Path_353" class="st1" d="M985.28,845.75c0,0,18.01-18.9,25.38-15.1c7.37,3.8-21.2,20.7-21.2,20.7L985.28,845.75z"/>
	<path id="Path_354" class="st4" d="M930.32,804.5c0,0-6.62,11.87-4.89,24.66c1.73,12.79,17.58,53.85,22.97,53.12
		s45.29-30.14,45.29-30.14l-7.61-10.62l-29.15,17.66C956.93,859.19,952.49,796.01,930.32,804.5z"/>
	<path id="Path_355" class="st5" d="M1038.41,833.39l-45.45,24.96c-1,0.66-2.34,0.39-3-0.6c-0.07-0.11-0.13-0.22-0.18-0.33
		l-11.13-23.27c-0.44-1.37,0.2-2.85,1.49-3.49l37.73-19.45c0.96-0.58,2.21-0.34,2.89,0.55l18.85,17.76
		c0.76,1.35,0.28,3.05-1.07,3.81C1038.49,833.35,1038.45,833.37,1038.41,833.39L1038.41,833.39z"/>
	<path id="Path_356" class="st2" d="M1035.38,829.96l-42.6,24.35l-11.34-20.43l36.55-19.87L1035.38,829.96z"/>
	
		<ellipse id="Ellipse_84" transform="matrix(0.6407 -0.7678 0.7678 0.6407 -272.5371 1062.7969)" class="st6" cx="999.23" cy="822.58" rx="0.63" ry="0.54"/>
	
		<ellipse id="Ellipse_85" transform="matrix(0.6407 -0.7678 0.7678 0.6407 -282.905 1082.455)" class="st6" cx="1015.05" cy="843.48" rx="0.42" ry="0.36"/>
	<path id="Path_357" class="st1" d="M930.32,804.5c0,0-6.62,11.87-4.89,24.66c1.73,12.79,17.58,53.85,22.97,53.12
		s45.29-30.14,45.29-30.14l-7.61-10.62l-29.15,17.66C956.93,859.19,952.49,796.01,930.32,804.5z"/>
	<path id="Path_358" class="st3" d="M973.1,849.36c0,0,20.39-16.31,27.18-11.55c6.8,4.76-23.78,17.67-23.78,17.67L973.1,849.36z"/>
	<circle id="Ellipse_86" class="st3" cx="945.92" cy="764.42" r="19.71"/>
	<path id="Path_359" class="st3" d="M1013.87,901.68c0,0,21.07,2.72,20.39,15.63c-0.68,12.91-16.31,66.59-16.31,66.59l-1.36,21.07
		c0,0,1.36,35.34-2.72,34.66c-4.08-0.68-13.59-25.14-13.59-25.14s-11.55-7.48-6.12-14.27s9.51-6.12,8.15-13.59
		c-1.36-7.47-0.68-38.73,3.4-48.25s6.45-14.76,6.45-14.76l-13.25-0.87L1013.87,901.68z"/>
	<path id="Path_360" class="st1" d="M1013.87,901.68c0,0,21.07,2.72,20.39,15.63c-0.68,12.91-16.31,66.59-16.31,66.59l-1.36,21.07
		c0,0,1.36,35.34-2.72,34.66c-4.08-0.68-13.59-25.14-13.59-25.14s-11.55-7.48-6.12-14.27s9.51-6.12,8.15-13.59
		c-1.36-7.47-0.68-38.73,3.4-48.25s6.45-14.76,6.45-14.76l-13.25-0.87L1013.87,901.68z"/>
	<path id="Path_361" class="st3" d="M1015.23,905.08c0,0,20.39,4.76,22.43,18.35c2.04,13.59,12.23,53.68,12.23,53.68l10.87,25.14
		c0,0,16.99,30.58,9.51,29.9c-7.48-0.68-17.67-15.63-21.07-15.63s-13.59-4.08-12.91-6.8c0.68-2.72,5.44-10.87,5.44-10.87
		l-16.44-28.64c-3.17-5.53-5.57-11.47-7.13-17.65c-1.69-6.71-3.61-14.92-3.61-17.59c0-4.76-13.59-6.79-13.59-6.79L1015.23,905.08z"
		/>
	<path id="Path_362" class="st5" d="M948.64,861.59l9.51,27.18c0,0,14.95,4.08,25.82,7.48c10.87,3.4,31.26-1.36,33.3,6.79
		c2.04,8.15-4.08,22.43-10.19,25.82c-6.12,3.4-9.51,6.79-29.22,1.36s-66.59-6.8-66.59-6.8c-4.55,2.73-9.67,4.36-14.95,4.76
		c-8.83,0.68-10.87,1.36-13.59-0.68s1.36-2.04,2.72-7.48c1.36-5.44,2.04-3.4,8.15-9.51c6.12-6.12,10.87-24.46,14.27-30.58
		c3.4-6.12,5.44-18.35,5.44-18.35L948.64,861.59z"/>
	<path id="Path_363" class="st3" d="M947.28,780.72c-5,3.66-8.02,9.43-8.15,15.63c0,10.19-20.39-10.87-20.39-10.87
		s10.87-13.59,10.87-17.67C929.61,763.74,947.28,780.72,947.28,780.72z"/>
	<path id="Path_364" class="st4" d="M921.45,776.65c0,0,12.23,4.76,14.95,11.55c2.72,6.8,12.91,21.07,12.91,21.07
		s14.27,14.95,9.51,31.26c-4.76,16.3-8.83,20.39-8.83,23.1s-6.79,7.48-12.23,6.8s-25.82-3.4-27.18-6.12
		c-1.36-2.72-9.51-41.45-4.08-55.72C910.92,797.68,915.91,787.02,921.45,776.65L921.45,776.65z"/>
	<path id="Path_365" class="st5" d="M951.63,765.31c4.41,1.05,8.74-1.76,12.35-4.55c2.05-1.58,4.31-3.84,3.68-6.38
		c-0.56-2.26-3.22-3.54-3.61-5.83c-0.27-1.59,0.66-3.15,0.74-4.76c-0.14-2.51-1.66-4.74-3.96-5.77c-2.15-1.16-4.59-1.64-6.79-2.67
		c-3.37-1.58-6.17-4.43-9.77-5.34c-4.92-1.25-9.93,1.41-14.98,1.75c-3.06,0.21-6.16-0.44-9.19,0.06c-5.94,1.2-10.29,6.32-10.5,12.38
		c-0.04,2.16,0.39,4.58-0.9,6.29c-0.51,0.59-1.09,1.12-1.73,1.57c-4.5,3.64-6.54,9.71-6.77,15.56c-0.11,2.88,0.49,6.3,3.04,7.53
		c1.37,0.47,2.82,0.67,4.26,0.59c1.47-0.06,2.88,0.61,3.76,1.8c1.16,2.05-0.58,5.09,0.94,6.88c1.14,1.35,3.37,0.9,4.71-0.25
		s2.16-2.8,3.44-4.02c2.46-2.39,6.12-2.82,9.49-3.18c1-0.01,1.97-0.33,2.78-0.91c0.61-0.64,1.01-1.46,1.14-2.34
		c0.44-2.02,0.45-4.12,0.02-6.15c-0.21-0.63-0.24-1.3-0.08-1.95c0.22-0.46,0.57-0.84,1-1.12c2.09-1.57,5.76-3.86,8.48-3.43
		C946.22,761.54,948.59,764.59,951.63,765.31z"/>
	<path id="Path_366" class="st4" d="M924.17,801.1c0,0-8.15,10.87-8.15,23.78c0,12.91,10.19,55.72,15.63,55.72
		s48.93-23.78,48.93-23.78l-6.11-11.55l-31.26,13.59C943.2,858.87,947.28,795.67,924.17,801.1z"/>
	<rect id="Rectangle_742" x="860.39" y="923.77" class="st2" width="156.05" height="30.25"/>
	<path id="Path_367" class="st0" d="M938.41,955.62c-7.03-0.01-12.73-5.71-12.74-12.74V584.59c0-7.04,5.7-12.74,12.74-12.74
		c2.93,0,5.77,1.01,8.04,2.86l-2.01,2.47c-4.09-3.33-10.11-2.71-13.44,1.38c-1.39,1.7-2.14,3.83-2.14,6.03v358.29
		c0.01,5.27,4.28,9.55,9.55,9.55L938.41,955.62z"/>
	
		<ellipse id="Ellipse_87" transform="matrix(0.7797 -0.6262 0.6262 0.7797 -269.9695 736.2878)" class="st2" cx="911.35" cy="751.8" rx="1.59" ry="4.78"/>
	<path id="Path_368" class="st0" d="M777.9,1022.7c-15.65,24-11.37,54.54-11.37,54.54s29.67-8.39,45.33-32.4
		c15.65-24.01,11.37-54.54,11.37-54.54S793.55,998.7,777.9,1022.7z"/>
	<path id="Path_369" class="st2" d="M789.66,1026.95c-1.24,28.63-22.49,50.97-22.49,50.97s-19.25-24.09-18.01-52.72
		c1.24-28.63,22.49-50.97,22.49-50.97S790.9,998.31,789.66,1026.95z"/>
	<path id="Path_370" class="st0" d="M520.27,1031.78c7.48,27.67,33.12,44.8,33.12,44.8s13.5-27.72,6.02-55.39
		c-7.48-27.67-33.12-44.8-33.12-44.8S512.79,1004.12,520.27,1031.78z"/>
	<path id="Path_371" class="st2" d="M531.27,1025.84c20.54,19.99,23.04,50.72,23.04,50.72s-30.79-1.68-51.32-21.67
		c-20.53-19.99-23.04-50.72-23.04-50.72S510.73,1005.84,531.27,1025.84z"/>
	<path id="Path_372" class="st2" d="M463.2,275.73c-1.79,28.6-23.46,50.53-23.46,50.53s-18.78-24.45-17-53.06
		c1.78-28.6,23.46-50.53,23.46-50.53S464.99,247.13,463.2,275.73z"/>
	<path id="Path_373" class="st2" d="M237.22,94.9c24.24,15.28,33.09,44.82,33.09,44.82s-30.46,4.76-54.71-10.53
		s-33.09-44.82-33.09-44.82S212.97,79.61,237.22,94.9z"/>
	<path id="Path_374" class="st2" d="M183.08,443.63c24.24,15.28,33.09,44.82,33.09,44.82s-30.46,4.76-54.71-10.53
		c-24.24-15.28-33.09-44.82-33.09-44.82S158.83,428.34,183.08,443.63z"/>
	<path id="Path_375" class="st2" d="M675.95,145.88c-7.31,27.71-32.84,45.01-32.84,45.01s-13.67-27.64-6.36-55.35
		c7.31-27.71,32.84-45.01,32.84-45.01S683.26,118.17,675.95,145.88z"/>
	<path id="Path_376" class="st2" d="M906.58,167.49c-8.59,27.34-34.9,43.43-34.9,43.43s-12.37-28.24-3.78-55.58
		s34.9-43.43,34.9-43.43S915.18,140.15,906.58,167.49z"/>
	<path id="Path_377" class="st2" d="M1155.86,471.79c-15.57,24.06-45.21,32.56-45.21,32.56s-4.4-30.52,11.16-54.58
		c15.57-24.07,45.21-32.56,45.21-32.56S1171.43,447.72,1155.86,471.79z"/>
</g>
</svg>
