<?xml version="1.0" encoding="utf-8"?>
<!-- Generator: Adobe Illustrator 24.1.1, SVG Export Plug-In . SVG Version: 6.00 Build 0)  -->
<svg version="1.1" id="Layer_1" xmlns="http://www.w3.org/2000/svg" xmlns:xlink="http://www.w3.org/1999/xlink" x="0px" y="0px"
	 viewBox="0 0 710 1080" style="enable-background:new 0 0 710 1080;" xml:space="preserve">
<style type="text/css">
	.st0{fill:#3F3D56;}
	.st1{opacity:0.1;enable-background:new    ;}
	.st2{fill:#E4A50D;}
	.st3{fill:#FFB9B9;}
	.st4{fill:#D0CDE1;}
	.st5{fill:#2F2E41;}
	.st6{fill:#F2F2F2;}
	.st7{fill:#FBBEBE;}
	.st8{fill:#575A89;}
	.st9{opacity:0.4;enable-background:new    ;}
	.st10{opacity:0.1;fill:#E4A50D;enable-background:new    ;}
	.st11{fill:url(#Path_236_1_);}
	.st12{fill:#4C495A;}
	.st13{fill:#5F5D7E;}
	.st14{fill:#FDC2CC;}
	.st15{fill:#DFE6F5;}
	.st16{fill:#53526B;}
	.st17{fill:#FFFFFF;}
	.st18{fill:#865A61;}
	.st19{opacity:0.1;}
	.st20{fill:#535461;}
	.st21{fill:#65617D;}
	.st22{fill:#9D9CB5;}
	.st23{fill:none;stroke:#535461;stroke-width:2;stroke-miterlimit:10;}
	.st24{fill:none;stroke:#1A1818;stroke-width:4;}
	.st25{fill:#0D0B0B;}
	.st26{fill:#870C17;}
	.st27{fill:#1A1818;}
</style>
<g id="undraw_searching_p5ux" transform="translate(-50 35.577)">
	<rect id="Rectangle_744" x="281.56" y="333.02" class="st0" width="16.54" height="627.1"/>
	<path id="Path_379" class="st0" d="M128.94,412.94C127.89,632.22,288.59,810.7,288.59,810.7S451,633.65,452.06,414.37
		S292.4,16.61,292.4,16.61S130,193.65,128.94,412.94z"/>
	<rect id="Rectangle_745" x="612.23" y="628.08" class="st0" width="8.51" height="322.53"/>
	<path id="Path_380" class="st0" d="M533.73,669.18c-0.54,112.78,82.11,204.58,82.11,204.58s83.53-91.06,84.07-203.84
		S617.8,465.34,617.8,465.34S534.27,556.4,533.73,669.18z"/>
	<ellipse id="Ellipse_88" class="st0" cx="444.58" cy="959.65" rx="230.45" ry="33.91"/>
	<path id="Path_381" class="st5" d="M425.57,169.31c19.52-31.67,58.15-33.15,58.15-33.15s37.64-4.62,61.79,43.61
		c22.51,44.96,53.57,88.36,5,98.89l-8.77-26.21l-5.43,28.17c-6.92,0.48-13.85,0.59-20.78,0.34c-52.01-1.61-101.54,0.47-99.95-17.45
		C417.69,239.69,406.78,199.78,425.57,169.31z"/>
	<path id="Path_382" class="st7" d="M495.88,228.95c0,0-25.23,33.91-10.09,61.36s-35.32,56.52-35.32,56.52l-37.01-77.51
		c0,0,43.73-27.45,31.96-53.29L495.88,228.95z"/>
	<ellipse id="Ellipse_89" class="st7" cx="479.06" cy="201.5" rx="43.73" ry="41.99"/>
	<path id="Path_383" class="st7" d="M630.41,250.03l-36.55-45.27c0,0-12.87-47.45-31.51-45.05s7.36,56.91,7.36,56.91l36.32,50.11
		L630.41,250.03z"/>
	<path id="Path_384" class="st7" d="M445.42,852.26l-11.77,59.75l-25.23,6.46l6.73-71.05L445.42,852.26z"/>
	<path id="Path_385" class="st7" d="M191.42,787.67L146,847.42l-18.5,8.07l-15.14-24.22l45.42-56.52L191.42,787.67z"/>
	<path id="Path_386" class="st8" d="M455.51,320.99l28.06-35.46c0,0,54.36,9.62,59.41,14.47s-13.46,93.66-13.46,93.66
		s-3.36,24.22-18.5,37.14l-15.14,9.69l-124.48-24.22l-4.68-53.17c-3.45-39.16,10.47-77.9,38.32-106.7l0,0l21.66,2.84L455.51,320.99z
		"/>
	<path id="Path_387" class="st8" d="M536.25,303.23l8.41-3.23l38.69-3.23c0,0,13.46-3.23,10.09-9.69s-6.73-8.07,0-9.69
		s8.41-3.23,6.73-8.07s-11.78-14.53-11.78-14.53l28.6-22.61c0,0,1.55,1.05,4.05,3c14.2,11.04,59.12,50.85,26.23,90.66
		c-38.69,46.83-84.1,74.28-121.11,64.59L536.25,303.23z"/>
	<path id="Path_388" class="st5" d="M499.24,432.41v22.61c0,0,15.14,27.45,10.09,53.29s-6.73,38.76-6.73,38.76
		c-0.56,22.01-4.53,43.8-11.77,64.59c-11.78,32.3,26.91,243.84-21.87,247.07s-75.69,6.46-90.83-9.69s25.23-293.9,25.23-293.9
		S265.43,831.27,236.84,819.97s-100.93-37.14-92.51-51.67s220.35-337.5,220.35-337.5l6.73-14.53L499.24,432.41z"/>
	<path id="Path_389" class="st5" d="M418.5,900.71c0,0,26.91-1.61,26.91,6.46s13.46,35.53,13.46,35.53s10.09,32.3-16.82,29.07
		s-43.73-32.3-43.73-32.3l6.73-30.68L418.5,900.71z"/>
	<path id="Path_390" class="st5" d="M137.6,844.19c0,0,23.55-14.53,21.87-4.84s-3.36,35.53-15.14,37.14s-47.1,11.3-48.78,14.53
		s-42.05,16.15-42.05-4.84s25.23-37.14,25.23-37.14l28.6-20.99c0,0,18.5-1.61,21.87,9.69C132.56,849.04,137.6,844.19,137.6,844.19z"
		/>
	<ellipse id="Ellipse_90" class="st5" cx="478.99" cy="136.32" rx="27.93" ry="26.81"/>
	<path id="Path_391" class="st5" d="M509.86,129.27c0-13.71-10.78-25.21-24.99-26.66c0.98-0.1,1.96-0.15,2.94-0.15
		c15.42,0,27.93,12,27.93,26.81s-12.5,26.81-27.93,26.81c-0.98,0-1.96-0.05-2.94-0.15C499.08,154.48,509.86,142.98,509.86,129.27z"
		/>
	<path id="Path_392" class="st5" d="M434.2,166.26l38.16-19.19l52.7,7.85l10.9,46.23l-27.14-1l-7.58-16.99v16.7l-12.52-0.46
		l-7.27-27.04l-4.54,28.78l-44.52-0.87L434.2,166.26z"/>
	<path id="Path_393" class="st7" d="M436.49,436.15l58.85,1.53c0,0,50.22,9.38,47.4-10.08s-51.81-12.65-51.81-12.65l-53.63-7.85
		L436.49,436.15z"/>
	<path id="Path_394" class="st8" d="M389.92,253.66c-6.01-0.95-11.84,2.54-13.85,8.28c-11.52,34.85-47.02,151.49-11.75,167.49
		c41.54,18.85,71.85,18.02,71.85,18.02l16.22-38.35l-14.77-13.31l-15.77-97.33l-7.56-41.26L389.92,253.66z"/>
	<path id="Path_395" class="st9" d="M400.84,318.57l6.73,64.59l58.87,24.22l-65.6-14.53L400.84,318.57z"/>
	<path id="Path_396" class="st0" d="M718.34,105.32L718.34,105.32c-18.76,4.68-35.13,16.1-46.01,32.09l-5.5,8.18l-0.28,0.34
		l-96.53,27.11c-3.59,0.93-5.76,4.59-4.83,8.19c0.01,0.02,0.01,0.05,0.02,0.07l7.49,26.38c0.51,1.76,1.7,3.23,3.32,4.1
		c1.64,0.89,3.56,1.11,5.37,0.63l96.55-25.91l0,0l9.7,3.52c17.91,6.48,37.42,7.12,55.71,1.82l0,0L718.34,105.32z"/>
	<path id="Path_427" class="st8" d="M616.69,181.82c-0.92-3,3.09-6.77,8.95-8.41c5.86-1.65,11.35-0.55,12.27,2.45
		c0.92,3-3.1,6.76-8.96,8.41C623.1,185.92,617.61,184.82,616.69,181.82z"/>
	<ellipse id="Ellipse_92" class="st0" cx="621.62" cy="180.7" rx="4.05" ry="3.89"/>
	<path id="Path_428" class="st2" d="M710.27,155.29c-8.05-23.83-5.48-45.98,5.75-49.48s26.85,12.99,34.9,36.82
		c8.05,23.83,5.47,45.98-5.75,49.48C733.95,195.61,718.32,179.12,710.27,155.29z"/>
	<path id="Path_397" class="st9" d="M713.27,154.45c-7.76-22.96-5.65-44.36,4.56-49.02c-0.61,0.07-1.22,0.2-1.81,0.38
		c-11.22,3.49-13.8,25.65-5.75,49.48s23.67,40.32,34.9,36.82c0.41-0.13,0.8-0.28,1.19-0.46
		C735.32,193.01,720.9,177.03,713.27,154.45z"/>
</g>
</svg>
