<?xml version="1.0" encoding="utf-8"?>
<!-- Generator: Adobe Illustrator 24.1.1, SVG Export Plug-In . SVG Version: 6.00 Build 0)  -->
<svg version="1.1" id="Layer_1" xmlns="http://www.w3.org/2000/svg" xmlns:xlink="http://www.w3.org/1999/xlink" x="0px" y="0px"
	 viewBox="0 0 230 242" style="enable-background:new 0 0 230 242;" xml:space="preserve">
<style type="text/css">
	.st0{fill:#3F3D56;}
	.st1{opacity:0.1;enable-background:new    ;}
	.st2{fill:#E4A50D;}
	.st3{fill:#FFB9B9;}
	.st4{fill:#D0CDE1;}
	.st5{fill:#2F2E41;}
	.st6{fill:#F2F2F2;}
	.st7{fill:#FBBEBE;}
	.st8{fill:#575A89;}
	.st9{opacity:0.4;enable-background:new    ;}
	.st10{opacity:0.1;fill:#E4A50D;enable-background:new    ;}
	.st11{fill:url(#Path_236_1_);}
	.st12{fill:#4C495A;}
	.st13{fill:#5F5D7E;}
	.st14{fill:#FDC2CC;}
	.st15{fill:#DFE6F5;}
	.st16{fill:#53526B;}
	.st17{fill:#FFFFFF;}
	.st18{fill:#865A61;}
	.st19{opacity:0.1;}
	.st20{fill:#535461;}
	.st21{fill:#65617D;}
	.st22{fill:#9D9CB5;}
	.st23{fill:none;stroke:#535461;stroke-width:2;stroke-miterlimit:10;}
	.st24{fill:none;stroke:#1A1818;stroke-width:4;}
	.st25{fill:#0D0B0B;}
	.st26{fill:#870C17;}
	.st27{fill:#1A1818;}
</style>
<g>
	<g id="Group_17" transform="translate(35.212 80.562)">
		<path id="Path_10" class="st25" d="M47.33,143.8h2.86c-0.42-0.15-0.81-0.37-1.18-0.55l-1.26,0.05
			C47.56,143.43,47.42,143.6,47.33,143.8z"/>
		<path id="Path_11" class="st26" d="M32.09,51.59C13.16,24,54.28,21.09,69.81,4.16l-0.55-0.55C55.71,17.58,2.77,25.37,32.09,51.59z
			"/>
		<path id="Path_12" class="st25" d="M93.34,48.33c-2.63,0.51-4.83,0.94-7.03,1.37C90.45,51.13,92.41,50.74,93.34,48.33z"/>
		<path id="Path_13" class="st25" d="M81.91,100.82c1.76,0.7,3.62,1.49,5.52,2.17c4.83-1.61,8.35-6.76,13.12-10.05
			C95.14,91.26,87.44,94.84,81.91,100.82z"/>
		<path id="Path_14" class="st25" d="M33.36,54.67c-1.44-1.39-2.68-2.61-3.95-3.83c-4.01,9.97-7.7,19.92-17.93,24.72
			C22.75,72.77,27.59,63.35,33.36,54.67z"/>
		<path id="Path_15" class="st25" d="M39.01,61.7c5.52-1.96,8.45-7.14,7.26-13.21C40.36,51.65,38.02,56.03,39.01,61.7z"/>
		<path id="Path_16" class="st25" d="M39.3,133.59c-1.53,0.39-2.97,1.09-4.22,2.07c3.37,2.25,6.91,4.26,10.56,6.01
			c1.54-2.08,3.08-4.14,4.65-6.26C47.01,132.68,43.25,132.67,39.3,133.59z"/>
		<path id="Path_17" class="st26" d="M62.5,20.05c6.6-0.41,16.51-4.26,16.88-9.88C73.69,13.5,68.1,16.78,62.5,20.05z"/>
		<path id="Path_18" class="st26" d="M38.93,40.04c-0.75,1.8-1.35,3.66-1.79,5.57c6.98-20.09,47.22-10.53,45.72-32.86
			C70.6,26.42,47.2,20.95,38.93,40.04z"/>
		<g id="Group_16" transform="translate(0 21.13)">
			<path id="Path_19" class="st25" d="M65.98,26.61c-0.99-2.85-5.32-1.76-6.89-3.64c-0.58,0.66-1.08,1.37-1.51,2.14
				C60.42,27.55,63.07,28.04,65.98,26.61z"/>
			<path id="Path_20" class="st25" d="M8.97,64.82c1.17-2.17,1.92-3.56,2.74-5.08c-1.19-0.22-2.51-0.47-4.49-0.84
				C7.81,60.92,8.29,62.56,8.97,64.82z"/>
			<path id="Path_21" class="st25" d="M88.27,10.05c-6.92,5.39-19.19,16.6-27.98,11.68c-0.43,0.39-0.83,0.8-1.21,1.24
				c1.57,1.88,5.9,0.79,6.89,3.64c-2.91,1.43-5.56,0.94-8.4-1.5c-0.6,1.01-1.03,2.12-1.29,3.26c0.16-1.29,0.39-2.58,0.7-3.85
				c-0.6-0.53-1.17-1.09-1.7-1.68C44.49,25.93,50.04,42,37.25,42.53c-3.38-17.88,19.43-17.91,24.63-31.4
				C34.07,11.72,35.25,63.37,5.33,56.08C4.91,60.6,6.03,65.12,8.5,68.93c8.39-6.24,28.39-12.88,37.72-17.23l-33.3,17.53
				c3.84,4.42,11.31,10.66,15.03,3.11C35.68,57.88,57,58.03,70.33,50.26c-0.8-1.26-1.44-2.26-2.19-3.45
				c2.69-1.75,4.13,1.1,6.06,2.13l0.61-0.57c-1.03-0.76-1.78-1.84-2.14-3.07c-0.71-2.7,0.9-5.94,4.11-7.86
				c-0.34-2.32-0.38-4.68-0.11-7.01C77.89,19.53,85.4,12.48,88.27,10.05z M8.97,64.82c-0.67-2.26-1.16-3.9-1.76-5.93
				c1.99,0.38,3.31,0.62,4.49,0.84C10.89,61.26,10.14,62.65,8.97,64.82z"/>
			<path id="Path_22" class="st25" d="M86.83,0C79.79,10.17,64.55,9.6,58.6,20.53l-0.06,0.13c-0.15,0.81,0.05,1.65,0.55,2.31
				c0.38-0.44,0.78-0.85,1.21-1.24C69.35,13.54,89.44,13.37,86.83,0z"/>
			<path id="Path_23" class="st25" d="M57.58,25.11c-0.2-0.16-0.4-0.4-0.59-0.58c-0.31,1.27-0.54,2.55-0.7,3.85
				C56.55,27.22,56.98,26.12,57.58,25.11z"/>
		</g>
		<path id="Path_24" class="st26" d="M103.56,139.51c0.78-0.42,1.63-0.7,2.51-0.82c2.24-0.92,4.81,0.02,5.93,2.17
			c2.18-3.97,3.23-8.45,3.03-12.98l-10.56,10.8L103.56,139.51z"/>
		<path id="Path_25" class="st26" d="M102.66,140.09l-10.57,9.86c1.88-0.54,3.64-1.41,5.2-2.59
			C99.72,145.5,101.59,142.98,102.66,140.09z"/>
		<path id="Path_26" class="st26" d="M35.03,35.32c-3.04,4.43-6.59,13.59,0.25,16.34C32.05,22.63,71.5,16.82,88.2,0
			C70.14,11.8,48.38,18.12,35.03,35.32z"/>
		<path id="Path_27" class="st26" d="M130.68,108.33c1.99-0.11,4.43,1.04,7.53,4.08c0.4-4.74-0.27-9.5-1.97-13.94
			c-1.01,2.02-2.04,4-3.08,5.95C132.41,105.78,131.49,107.02,130.68,108.33z"/>
		<path id="Path_28" class="st26" d="M118,124.84c-1.03,3.87-1.41,7.88-1.12,11.87c2.86-3.15,4.27-11.12,6.27-17.83
			c-1.1,1.34-2.12,2.75-3.28,4.04L118,124.84z"/>
		<path id="Path_29" class="st25" d="M125.8,42.74c-0.12-0.13-0.22-0.26-0.35-0.39c1.9,8.75-8.32,6.99-9.76,12.51
			c-3.65,11.8,12.2,12.37,15.9,4.31c-0.75-5.29-2.43-10.4-4.97-15.1C126.38,43.62,126.06,43.19,125.8,42.74z"/>
		<path id="Path_30" class="st25" d="M132.07,65.12c-2.82,2.75-6.06,2.38-9.16,1.65c-18.57,7.77-3.12,21.57,5.67,16.87
			c0.29-0.74,0.62-1.47,0.88-2.21C131.31,76.2,132.2,70.67,132.07,65.12z"/>
		<path id="Path_31" class="st25" d="M127.47,86.33c0.03-0.2,0.06-0.36,0.09-0.56c-3.94,2.49-7.17,1-10.13-0.79
			c-20.71,1.71-8.93,20.73,1.12,17.57c0.74-1.1,1.48-2.21,2.15-3.33C123.08,94.95,125.51,90.67,127.47,86.33z"/>
		<path id="Path_32" class="st25" d="M114.78,107.68c0.21-0.48,0.44-0.91,0.65-1.42c-4.48,1.33-7.17-0.99-9.53-3.52
			c-22.01-4.33-13.1,21.08-1.13,16.68c1.31-1.46,2.64-2.92,3.92-4.4C110.78,112.59,112.85,110.15,114.78,107.68z"/>
		<path id="Path_33" class="st25" d="M101.38,123.1c-5.75,1.31-9.56-2.15-12.33-5.52c-28.13-7.41-17.71,27.26-1.54,20.5
			c4.02-4.31,8.02-8.56,11.95-12.81C100.04,124.5,100.68,123.77,101.38,123.1z"/>
		<path id="Path_34" class="st25" d="M106.8,41.77c-7.53,23.55,37.16-2.1,1.89-12.49C110.64,33.95,111.47,38.65,106.8,41.77z"/>
		<path id="Path_35" class="st26" d="M86.65,17.09c15.62,3.31,26.7-12.87,42.43-12.66C118.26,1.56,91.22,10.76,86.65,17.09z"/>
		<path id="Path_36" class="st26" d="M158.16,75c1.83-12.99-29.81-30.2-4.22-33.82c-6.69-3.79-14.42-6.17-22.22-4.36
			c0.9,1.3,2.5,2.87,3.2,4.28c4.1,6.1,6.84,13.02,8.01,20.28C150.21,63.29,154.31,69.05,158.16,75z"/>
		<path id="Path_37" class="st26" d="M128.82,8.18c-8.88-0.69-21.55,4.31-26.36,10.31c10.56,3.4,20.25,9.09,28.36,16.67
			c8.89-1.18,17.93-0.16,26.33,2.97C147.27,26.52,93.76,26.21,128.82,8.18z"/>
		<path id="Path_38" class="st25" d="M91.28,30.01c4.2,9.18-12.37,11.97-11.35,19.94C130.96,39.63,94.77,14.44,91.28,30.01z"/>
		<path id="Path_39" class="st26" d="M143.21,77.39c2.89-2.36,9.09-0.45,12.85,0.15c-2.78-5.63-6.5-10.46-12.72-12.9
			C143.79,68.88,143.75,73.16,143.21,77.39z"/>
		<path id="Path_40" class="st26" d="M141.34,112.82c3.98-9.36,1.72-19.11,0.57-28.73c-0.79,2.9-1.79,5.74-2.98,8.5
			C138.7,99.42,139.51,106.24,141.34,112.82z"/>
		<path id="Path_41" class="st25" d="M85.4,105.07c-10.36-2.24-16.75,5.02-24.22,9.15c8.64,5.88,14.21-1.38,20.94-6.49
			C83.24,106.88,84.31,105.96,85.4,105.07z"/>
		<path id="Path_42" class="st25" d="M106.97,63.96c5.57,0.08,4.76-4.78,1.87-7.81C101.34,50.82,102.84,61.6,106.97,63.96z"/>
		<path id="Path_43" class="st25" d="M106.48,68.94c-1.15,2.36-1.33,5.19-2,8.19C114.6,79.86,114.75,58.21,106.48,68.94z"/>
		<path id="Path_44" class="st25" d="M95.57,89.37c2.13,0.27,4.09,0.55,6.06,0.76c3.62-2.1,5.23-7.25,8.36-10.89
			C104.23,79.47,99.94,82.65,95.57,89.37z"/>
		<path id="Path_45" class="st25" d="M95.82,50.53c2.29,3.56,4.9,4.33,8.95,1.04C101.45,50.92,98.24,47.51,95.82,50.53z"/>
		<path id="Path_46" class="st25" d="M87.19,107.07l-5.95,4.53c2.93,0.5,4.63,0.79,7.06,1.2C87.86,110.51,87.57,109.03,87.19,107.07
			z"/>
		<path id="Path_47" class="st25" d="M66.26,125.11l-6.87,5.22c3.38,0.58,5.34,0.91,8.15,1.39
			C67.03,129.09,66.7,127.37,66.26,125.11z"/>
		<path id="Path_48" class="st25" d="M51.19,138.91l-3.79,4.4l0.34-0.01c0.37-0.29,0.87-0.31,1.26-0.05l3.96-0.16
			C52.26,141.42,51.8,140.34,51.19,138.91z"/>
		<path id="Path_49" class="st25" d="M47.74,143.3l1.26-0.05C48.61,142.99,48.1,143.01,47.74,143.3z"/>
		<path id="Path_50" class="st25" d="M103.32,94.12c-1.84,1.4-3.31,2.51-5.77,4.39c2.84,0.49,4.49,0.76,6.85,1.17
			C103.97,97.47,103.69,96.03,103.32,94.12z"/>
		<path id="Path_51" class="st25" d="M112.86,78.92c-1.13,1.71-2.03,3.07-3.55,5.37c2.52-0.43,3.98-0.68,6.08-1.03
			C114.39,81.53,113.73,80.4,112.86,78.92z"/>
		<path id="Path_52" class="st25" d="M117.32,65.8c-1.29-0.54-2.14-0.89-3.25-1.35c0.1,1.44,0.17,2.57,0.3,4.5
			C115.59,67.64,116.3,66.88,117.32,65.8z"/>
		<path id="Path_53" class="st25" d="M113.5,53.13l-3.41,0.85c0.93,1.1,1.67,1.97,2.92,3.44C113.21,55.64,113.33,54.61,113.5,53.13z
			"/>
		<path id="Path_54" class="st25" d="M99.46,46.28l4.13,1.82c-0.59-1.69-0.93-2.67-1.43-4.08L99.46,46.28z"/>
		<path id="Path_55" class="st25" d="M52.07,120.54c-4.25,3.13-8.44,6.01-12.13,9.87c4.6-0.01,8.88-0.39,12.29,2.85
			c4.98-4.66,9.83-9.21,15.24-14.28C61.62,116.91,56.61,117.47,52.07,120.54z"/>
		<path id="Path_56" class="st26" d="M67.51,83.41l0.5,0.69c7.47-4.03,22.2-11.19,11.3-20.78C68.02,62.94,90.14,70.44,67.51,83.41z"
			/>
		<path id="Path_57" class="st25" d="M8.97,85.95c1.17-2.17,1.92-3.56,2.74-5.08c-1.19-0.22-2.51-0.47-4.49-0.84
			C7.81,82.05,8.29,83.69,8.97,85.95z"/>
		<path id="Path_58" class="st27" d="M129.3,42.53c4.37,7.31,6.64,15.68,6.56,24.19c0.13,5.16-0.58,10.31-2.12,15.24
			c-1.92,6.5-5.18,12.77-8.47,18.89c-3.32,6.07-7.65,11.49-12.12,16.9c-8.93,10.74-18.78,20.65-28.13,31.14l0.03,0.03
			c5.24-4.56,10.33-9.31,15.52-13.97c5.25-4.79,10.05-9.95,14.97-15.09c4.98-5.19,9.35-10.94,13-17.14
			c3.49-6.23,6.94-12.51,9.16-19.56c0.97-3.38,1.59-6.85,1.87-10.35c0.73-11.14-2.22-22.2-8.4-31.5
			C122.77,28.98,108.76,22.1,95,20.8C109.29,22.88,122.31,30.78,129.3,42.53z"/>
		<path id="Path_59" class="st25" d="M72.52,137.05c-34.17-13.39-15.15,46.94,11.06,6.53C77.71,144.22,74.88,140.73,72.52,137.05z"
			/>
	</g>
	<path id="Path_61" class="st2" d="M217.63,108.62c-5.35-13.63-13.33-26.08-23.49-36.63c-2.39-2.48-4.9-4.83-7.54-7.04
		c-6.21-5.23-10.67-12.46-11.22-20.56c-0.12-1.58-0.07-3.17,0.15-4.74c0,0-8.7,5.58-14.28,3.57s-6.7-20.98-6.7-20.98
		s-9.15,13.84-16.52,11.16S113.29,0,113.29,0S96.07,30.74,88.7,33.42S72.19,22.26,72.19,22.26s-1.12,18.97-6.7,20.98
		s-14.28-3.58-14.28-3.58c0.37,3.3,0.17,6.63-0.59,9.86c-1.53,7.45-5.79,13.97-11.36,19.15c-1.16,1.08-2.29,2.19-3.39,3.33
		c-10.16,10.55-18.14,22.99-23.49,36.62c-5.18,13.55-7.57,28.01-7.01,42.51c1.14-28.71,13.42-56.4,33.72-75.92
		c10.13-9.76,22-17.52,35-22.88c26.27-10.51,55.58-10.51,81.85,0c13,5.36,24.87,13.12,35,22.88c20.3,19.51,32.57,47.2,33.72,75.91
		C225.2,136.63,222.81,122.17,217.63,108.62z"/>
	<g id="Group_19" transform="translate(22.856 95.093)">
		<g id="Group_18">
			<path id="Path_62" class="st2" d="M11.27,0l1.86,3.76l4.15,0.6l-3,2.93l0.71,4.13l-3.71-1.95l-3.71,1.95l0.71-4.13l-3-2.93
				l4.15-0.6L11.27,0z"/>
			<path id="Path_63" class="st2" d="M173.02,0l-1.86,3.76l-4.15,0.6l3,2.93l-0.71,4.13l3.71-1.95l3.71,1.95l-0.71-4.13l3-2.93
				l-4.15-0.6L173.02,0z"/>
		</g>
	</g>
	<g id="Group_21" transform="translate(49.703 66.332)">
		<g id="Group_20">
			<path id="Path_64" class="st2" d="M12.06,0l2.1,4.25l4.69,0.68l-3.4,3.31l0.8,4.67l-4.2-2.21l-4.2,2.21l0.8-4.67l-3.4-3.31
				l4.71-0.68L12.06,0z"/>
			<path id="Path_65" class="st2" d="M118.54,0l-2.1,4.25l-4.69,0.68l3.4,3.31l-0.8,4.67l4.2-2.21l4.2,2.21l-0.8-4.67l3.4-3.31
				l-4.71-0.68L118.54,0z"/>
		</g>
	</g>
	<path id="Path_66" class="st2" d="M115,47.06l2.65,5.36l5.92,0.86l-4.28,4.17l1.01,5.89L115,60.57l-5.29,2.78l1.01-5.89l-4.28-4.17
		l5.92-0.86L115,47.06z"/>
</g>
</svg>
